:SAMPLES-PER-SECOND 30
:FRAME-RANGE 1-2091
:FULLY-SPECIFIED
:DEGREES
1111
root  -63.5873 38.3106 45.7074 -171.589 -51.3373 172.747
RightUpLeg  -19.8973 0.391264 0.400981
RightLeg  -4.79068 -40.4065 6.81044
RightFoot  -8.72492 -0.0067815 -2.2873
RightToes  5.38607e-012 1.2921e-014 -6.02303e-014
Spine  -6.32511 -5.52423 -10.3122
Spine1  5.99526 -5.01991 0.660496
HEad  7.34349 -57.0089 6.59699
LeftShoulder1  1.04881 -1.04095 -17.7524
LeftArm  -6.42803 9.78281 -34.5843
LeftForeArm  25.6606 -2.35923 -10.5258
LeftHand  -0.0639391 4.43253 5.43837
RightShoulder  0.891338 -0.535248 25.9815
RightArm  -26.712 1.13323 51.0251
RightForeArm  66.2575 -5.32351 2.77353
RightHand  1.46553 -12.3648 -24.1938
LeftUpLeg  4.26285 4.27097 -3.71588
LeftLeg  13.8747 10.8277 3.25488
LeftFoot  -15.722 -0.20416 -7.78873
LeftToes  -7.20997e-011 3.75522e-011 -2.80735e-011
1112
root  -64.5526 38.0366 45.1553 -171.641 -47.793 172.207
RightUpLeg  -19.3096 1.09651 0.968739
RightLeg  -4.52552 -38.4175 5.97886
RightFoot  -9.24779 -0.0451032 -0.958547
RightToes  5.38607e-012 1.2921e-014 -6.02303e-014
Spine  -6.48087 -5.80368 -9.94859
Spine1  5.94251 -5.38539 0.706665
HEad  3.95696 -58.3349 8.94823
LeftShoulder1  1.07313 -0.999726 -18.6129
LeftArm  -6.05987 10.3628 -33.4278
LeftForeArm  24.8017 -3.50387 -10.6101
LeftHand  -0.0705927 4.37303 5.96641
RightShoulder  0.844897 -0.637298 25.4309
RightArm  -25.9429 2.10333 51.9542
RightForeArm  66.5565 -5.36976 3.11619
RightHand  1.50304 -12.4514 -24.483
LeftUpLeg  5.63707 4.90846 -4.95894
LeftLeg  16.3066 12.6963 3.84836
LeftFoot  -17.0621 -0.407316 -10.1728
LeftToes  -7.20997e-011 3.75522e-011 -2.80735e-011
1113
root  -65.4837 37.9304 44.5863 -172.775 -45.0351 172.924
RightUpLeg  -18.8537 1.03912 2.02046
RightLeg  -1.396 -34.435 4.34566
RightFoot  -7.35335 0.144852 -5.57938
RightToes  5.38607e-012 1.2921e-014 -6.02303e-014
Spine  -6.38149 -6.01009 -8.12756
Spine1  6.26842 -5.87241 0.871877
HEad  0.352504 -59.6306 11.4389
LeftShoulder1  1.17379 -1.27981 -19.3394
LeftArm  -5.87843 11.1172 -33.2899
LeftForeArm  24.1639 -4.04944 -10.6331
LeftHand  -0.0766033 4.29964 6.26968
RightShoulder  0.767389 -0.838104 24.8051
RightArm  -25.2962 2.319 52.8048
RightForeArm  66.5658 -5.42293 3.43679
RightHand  1.46187 -12.2462 -24.5302
LeftUpLeg  6.6194 7.05225 -4.83625
LeftLeg  19.4119 11.9266 4.59402
LeftFoot  -17.1017 -0.561948 -13.1514
LeftToes  -7.20997e-011 3.75522e-011 -2.80735e-011
1114
root  -66.3255 37.9603 43.962 -175.021 -42.5778 175.075
RightUpLeg  -19.3655 2.00998 4.18001
RightLeg  3.63924 -33.9034 0.854589
RightFoot  -2.08262 0.750022 -9.4057
RightToes  5.38607e-012 1.2921e-014 -6.02303e-014
Spine  -5.84157 -5.96094 -5.27422
Spine1  6.6137 -6.31471 1.64909
HEad  -3.83769 -60.2904 14.319
LeftShoulder1  1.25381 -1.48898 -19.9339
LeftArm  -6.19322 11.4606 -34.2521
LeftForeArm  23.9511 -3.56166 -10.5966
LeftHand  -0.0635319 4.60702 6.63687
RightShoulder  0.707642 -1.03957 24.9084
RightArm  -23.6946 1.84436 52.5574
RightForeArm  65.2842 -5.62197 4.34979
RightHand  1.39895 -11.987 -24.4164
LeftUpLeg  6.3279 9.97126 -2.6523
LeftLeg  25.0294 9.17812 4.98465
LeftFoot  -15.3013 -0.531378 -17.8803
LeftToes  -7.20997e-011 3.75522e-011 -2.80735e-011
1115
root  -67.0827 37.8743 43.286 -177.109 -39.8552 177.399
RightUpLeg  -19.8225 1.59026 6.04504
RightLeg  9.04569 -30.7874 -0.581124
RightFoot  -1.177 0.910728 -10.2912
RightToes  5.38607e-012 1.2921e-014 -6.02303e-014
Spine  -4.87706 -5.83544 -2.71401
Spine1  5.94457 -6.44172 2.62605
HEad  -6.26773 -60.1172 16.2373
LeftShoulder1  1.27072 -1.54935 -19.959
LeftArm  -7.53645 11.6846 -36.8261
LeftForeArm  24.0484 -2.25047 -10.2348
LeftHand  -0.0541183 4.76438 6.38304
RightShoulder  0.685932 -1.14002 25.3637
RightArm  -22.2669 1.62454 51.8392
RightForeArm  64.6068 -5.77573 5.13191
RightHand  1.33844 -11.6191 -24.7314
LeftUpLeg  3.13776 12.9769 0.738524
LeftLeg  35.5335 5.32533 4.43909
LeftFoot  -10.5566 0.226213 -23.5702
LeftToes  -7.20997e-011 3.75522e-011 -2.80735e-011
1116
root  -67.7575 37.7891 42.604 -178.495 -36.2585 179.154
RightUpLeg  -19.6315 -0.314677 8.43154
RightLeg  12.6855 -25.5452 -0.876184
RightFoot  -2.35353 0.914081 -11.7773
RightToes  5.38607e-012 1.2921e-014 -6.02303e-014
Spine  -4.38678 -5.53693 -1.06675
Spine1  5.62194 -6.33992 3.7429
HEad  -6.98493 -58.9884 16.8669
LeftShoulder1  1.28408 -1.75255 -19.1136
LeftArm  -9.11273 12.5436 -40.4512
LeftForeArm  23.3936 -1.44755 -9.83109
LeftHand  -0.0509622 4.77193 5.74554
RightShoulder  0.71077 -1.05289 25.2496
RightArm  -22.3428 2.1148 52.2824
RightForeArm  66.2281 -5.70121 5.04076
RightHand  1.37343 -11.7461 -24.8556
LeftUpLeg  -1.68149 14.9706 3.59161
LeftLeg  46.9079 2.57347 3.36963
LeftFoot  -1.91624 1.95731 -23.3156
LeftToes  -7.20997e-011 3.75522e-011 -2.80735e-011
1117
root  -68.3294 37.7063 41.9645 -179.322 -32.5494 179.785
RightUpLeg  -19.0699 -1.03906 10.1353
RightLeg  15.7667 -21.2812 -1.80086
RightFoot  -3.78306 0.818208 -12.7054
RightToes  5.38607e-012 1.2921e-014 -6.02303e-014
Spine  -3.80976 -5.64033 -0.674512
Spine1  5.81906 -6.54804 4.85732
HEad  -7.46548 -57.4902 17.9344
LeftShoulder1  1.27276 -1.81298 -18.5522
LeftArm  -9.46302 13.3251 -42.8403
LeftForeArm  22.8283 -1.45294 -9.84157
LeftHand  -0.0552396 4.60203 5.17263
RightShoulder  0.736872 -1.00853 25.8154
RightArm  -22.6997 3.49251 52.9288
RightForeArm  69.4107 -5.52463 4.70152
RightHand  1.52199 -12.4127 -24.8977
LeftUpLeg  -6.53428 14.9029 4.90663
LeftLeg  56.018 0.438737 1.21494
LeftFoot  7.99233 3.13091 -18.5292
LeftToes  -7.20997e-011 3.75522e-011 -2.80735e-011
1118
root  -68.8623 37.6976 41.3449 -179.946 -28.5495 179.977
RightUpLeg  -17.7122 -0.787295 11.1527
RightLeg  17.4905 -17.8737 -2.1283
RightFoot  -5.32551 0.636106 -12.7205
RightToes  5.38607e-012 1.2921e-014 -6.02303e-014
Spine  -3.05428 -5.79569 -0.347991
Spine1  5.75447 -6.64742 5.37295
HEad  -6.5257 -57.0214 18.1568
LeftShoulder1  1.25046 -1.70118 -18.6701
LeftArm  -8.65444 13.4078 -43.8694
LeftForeArm  24.3743 -1.48381 -10.1997
LeftHand  -0.0643955 4.27282 4.71906
RightShoulder  0.715493 -1.15246 27.0048
RightArm  -22.5897 4.79668 53.2446
RightForeArm  70.793 -5.46496 4.66674
RightHand  1.57545 -12.6257 -24.997
LeftUpLeg  -10.2348 13.0736 5.48831
LeftLeg  62.0722 -1.10873 -1.66868
LeftFoot  8.78101 3.03318 -17.2873
LeftToes  -7.20997e-011 3.75522e-011 -2.80735e-011
1119
root  -69.4002 37.7504 40.7014 179.657 -24.0207 179.838
RightUpLeg  -15.9214 -0.312091 11.7833
RightLeg  18.4629 -14.1356 -2.13789
RightFoot  -6.74606 0.463254 -12.6116
RightToes  5.38607e-012 1.2921e-014 -6.02303e-014
Spine  -2.69979 -5.73999 0.194747
Spine1  5.74919 -6.42424 5.15023
HEad  -4.95828 -57.6362 17.3645
LeftShoulder1  1.23928 -1.66233 -18.6378
LeftArm  -8.08067 13.4135 -44.881
LeftForeArm  27.3322 -1.40095 -10.4578
LeftHand  -0.0500918 4.67733 4.75778
RightShoulder  0.721302 -1.16974 27.5694
RightArm  -22.6164 5.14979 54.1313
RightForeArm  70.8653 -5.45939 4.65016
RightHand  1.53783 -12.3642 -25.3021
LeftUpLeg  -13.0321 10.3295 5.74539
LeftLeg  65.0357 -1.74941 -3.44406
LeftFoot  5.08969 2.34918 -16.3919
LeftToes  -7.20997e-011 3.75522e-011 -2.80735e-011
1120
root  -69.9265 37.8435 40.0396 179.599 -19.2 179.262
RightUpLeg  -14.1654 -0.594887 11.7425
RightLeg  19.146 -9.41853 -1.45036
RightFoot  -7.97506 0.326283 -12.8601
RightToes  5.38607e-012 1.2921e-014 -6.02303e-014
Spine  -2.63468 -5.61493 0.410509
Spine1  5.65864 -6.16971 4.79076
HEad  -3.13867 -58.8598 15.6835
LeftShoulder1  1.23767 -1.64139 -18.7168
LeftArm  -7.71132 13.8426 -45.608
LeftForeArm  29.6477 -1.61426 -10.6191
LeftHand  -0.0494605 4.6641 4.54816
RightShoulder  0.730256 -1.12998 27.3606
RightArm  -22.6674 4.86642 55.5536
RightForeArm  71.9167 -5.41159 4.61284
RightHand  1.54542 -12.4132 -25.2517
LeftUpLeg  -15.1338 6.77384 5.68117
LeftLeg  64.7143 -1.40329 -2.58936
LeftFoot  3.70134 2.04476 -15.5779
LeftToes  -7.20997e-011 3.75522e-011 -2.80735e-011
1121
root  -70.41 37.926 39.3973 179.762 -13.999 178.77
RightUpLeg  -12.6954 -0.521812 11.4898
RightLeg  19.6742 -4.75542 -0.453117
RightFoot  -8.88553 0.225331 -13.2251
RightToes  5.38607e-012 1.2921e-014 -6.02303e-014
Spine  -2.54109 -5.51761 0.680191
Spine1  5.23312 -5.97025 4.39303
HEad  -1.76211 -60.368 14.0564
LeftShoulder1  1.2207 -1.55317 -18.8294
LeftArm  -8.0807 14.6962 -45.9947
LeftForeArm  30.0517 -1.63001 -10.5275
LeftHand  -0.0514048 4.58739 4.53836
RightShoulder  0.735396 -1.10899 27.2731
RightArm  -22.1038 4.75784 56.6952
RightForeArm  72.4304 -5.44455 4.93742
RightHand  1.56304 -12.4981 -25.2323
LeftUpLeg  -16.7365 3.09039 6.04367
LeftLeg  62.0392 -0.617855 -0.664798
LeftFoot  1.68032 1.70908 -14.9947
LeftToes  -7.20997e-011 3.75522e-011 -2.80735e-011
